<?xml version="1.0" encoding="UTF-8"?>
<svg width="39px" height="33px" viewBox="0 0 39 33" version="1.1" xmlns="http://www.w3.org/2000/svg" xmlns:xlink="http://www.w3.org/1999/xlink">
    <!-- Generator: Sketch 50.2 (55047) - http://www.bohemiancoding.com/sketch -->
    <title>noun_account_2522579</title>
    <desc>Created with Sketch.</desc>
    <defs></defs>
    <g id="Symbols" stroke="none" stroke-width="1" fill="none" fill-rule="evenodd" opacity="0.48">
        <g id="Sidebar" transform="translate(-31.000000, -896.000000)" fill="#FFFFFF" fill-rule="nonzero">
            <g id="noun_account_2522579" transform="translate(31.000000, 896.000000)">
                <g id="Group">
                    <path d="M19.5,0 C24.5601266,0 28.6329114,3.97445255 28.6329114,8.7919708 C28.6329114,13.729927 24.5601266,17.7043796 19.5,17.7043796 C14.5632911,17.7043796 10.4905063,13.729927 10.4905063,8.7919708 C10.4905063,3.97445255 14.5632911,0 19.5,0 Z M19.5,2.40875912 C15.9208861,2.40875912 12.9588608,5.29927007 12.9588608,8.7919708 C12.9588608,12.4051095 15.9208861,15.2956204 19.5,15.2956204 C23.2025316,15.2956204 26.164557,12.4051095 26.164557,8.7919708 C26.164557,5.29927007 23.2025316,2.40875912 19.5,2.40875912 Z" id="Shape"></path>
                    <path d="M6.41772152,20.3540146 L32.5822785,20.3540146 C36.1613924,20.3540146 39,23.2445255 39,26.7372263 L39,33 L0,33 L0,26.7372263 C0,23.2445255 2.96202532,20.3540146 6.41772152,20.3540146 Z M32.5822785,22.7627737 L6.41772152,22.7627737 C4.31962025,22.7627737 2.46835443,24.5693431 2.46835443,26.7372263 L2.46835443,30.5912409 L36.5316456,30.5912409 L36.5316456,26.7372263 C36.5316456,24.5693431 34.8037975,22.7627737 32.5822785,22.7627737 Z" id="Shape"></path>
                </g>
            </g>
        </g>
    </g>
</svg>