<?xml version="1.0" encoding="UTF-8"?>
<svg width="24px" height="20px" viewBox="0 0 24 20" version="1.1" xmlns="http://www.w3.org/2000/svg" xmlns:xlink="http://www.w3.org/1999/xlink">
    <!-- Generator: Sketch 50.2 (55047) - http://www.bohemiancoding.com/sketch -->
    <title>noun_Calendar_656471</title>
    <desc>Created with Sketch.</desc>
    <defs></defs>
    <g id="Symbols" stroke="none" stroke-width="1" fill="none" fill-rule="evenodd">
        <g id="Date-Filter" transform="translate(-281.000000, -9.000000)" fill="#FFFFFF" fill-rule="nonzero">
            <g id="noun_Calendar_656471" transform="translate(281.000000, 9.000000)">
                <g id="Group">
                    <path d="M1.30434835,0.0940727273 C0.595278783,0.0940727273 5.21739131e-07,0.686748052 5.21739131e-07,1.39277403 L5.21739131e-07,18.5356364 C5.21739131e-07,19.2416364 0.595278783,19.8343377 1.30434835,19.8343377 L22.6956517,19.8343377 C23.4047212,19.8343377 23.9999995,19.2416364 23.9999995,18.5356364 L23.9999995,1.39277403 C23.9999995,0.686774026 23.4047212,0.0940727273 22.6956517,0.0940727273 L1.30434835,0.0940727273 Z M1.56521791,1.65251429 L22.4347821,1.65251429 L22.4347821,5.80835844 L1.56521791,5.80835844 L1.56521791,1.65251429 Z M6.00000052,2.69147532 C5.42371357,2.69147532 4.95652226,3.15661818 4.95652226,3.73043636 C4.95652226,4.30422857 5.42371357,4.7693974 6.00000052,4.7693974 C6.57628748,4.7693974 7.04347878,4.30422857 7.04347878,3.73043636 C7.04347878,3.15661818 6.57628748,2.69147532 6.00000052,2.69147532 Z M18.0000005,2.69147532 C17.4237136,2.69147532 16.9565223,3.15661818 16.9565223,3.73043636 C16.9565223,4.30422857 17.4237136,4.7693974 18.0000005,4.7693974 C18.5762875,4.7693974 19.0434788,4.30422857 19.0434788,3.73043636 C19.0434788,3.15661818 18.5762875,2.69147532 18.0000005,2.69147532 Z M1.56521791,7.3668 L22.4347821,7.3668 L22.4347821,18.2758961 L1.56521791,18.2758961 L1.56521791,7.3668 Z M4.17391357,8.6655013 L4.17391357,12.3018701 L7.30434835,12.3018701 L7.30434835,8.6655013 L4.17391357,8.6655013 Z M8.34782661,8.6655013 L8.34782661,12.3018701 L11.4782614,12.3018701 L11.4782614,8.6655013 L8.34782661,8.6655013 Z M12.5217397,8.6655013 L12.5217397,12.3018701 L15.6521744,12.3018701 L15.6521744,8.6655013 L12.5217397,8.6655013 Z M16.6956527,8.6655013 L16.6956527,12.3018701 L19.8260875,12.3018701 L19.8260875,8.6655013 L16.6956527,8.6655013 Z M4.17391357,13.3408312 L4.17391357,16.9771948 L7.30434835,16.9771948 L7.30434835,13.3408312 L4.17391357,13.3408312 Z M8.34782661,13.3408312 L8.34782661,16.9771948 L11.4782614,16.9771948 L11.4782614,13.3408312 L8.34782661,13.3408312 Z M12.5217397,13.3408312 L12.5217397,16.9771948 L15.6521744,16.9771948 L15.6521744,13.3408312 L12.5217397,13.3408312 Z" id="Shape"></path>
                </g>
            </g>
        </g>
    </g>
</svg>