<?xml version="1.0" encoding="UTF-8"?>
<svg width="16px" height="16px" viewBox="0 0 16 16" version="1.1" xmlns="http://www.w3.org/2000/svg" xmlns:xlink="http://www.w3.org/1999/xlink">
    <!-- Generator: Sketch 50.2 (55047) - http://www.bohemiancoding.com/sketch -->
    <title>noun_export_2135794</title>
    <desc>Created with Sketch.</desc>
    <defs></defs>
    <g id="Symbols" stroke="none" stroke-width="1" fill="none" fill-rule="evenodd">
        <g id="Export" transform="translate(-100.000000, -9.000000)" fill="#FFFFFF" fill-rule="nonzero">
            <g id="noun_export_2135794" transform="translate(100.000000, 9.000000)">
                <path d="M0,3.30578512 L0,14.677686 C-2.71770993e-05,15.0255372 0.13701636,15.3593884 0.381434707,15.6069091 C0.625852889,15.8544132 0.957958674,15.9956529 1.30578512,16 L12.677686,16 C12.8513388,16 13.0232893,15.9658017 13.183719,15.8993388 C13.3441488,15.8328926 13.4899174,15.7354876 13.6127107,15.6127107 C13.7354876,15.4899174 13.8328926,15.3441488 13.8993388,15.183719 C13.9658017,15.0232893 14,14.8513388 14,14.677686 L14,7.73553719 C14,7.51634711 13.9129256,7.30613223 13.7579339,7.15115702 C13.6029421,6.99616529 13.3927438,6.90909091 13.1735537,6.90909091 C12.9543636,6.90909091 12.7441488,6.99616529 12.5891736,7.15115702 C12.4341818,7.30613223 12.3471074,7.51634711 12.3471074,7.73553719 L12.3471074,14.3471074 L1.65289256,14.3471074 L1.65289256,3.65289256 L8.26446281,3.65289256 C8.48365289,3.65289256 8.69386777,3.56581818 8.84884297,3.41082645 C9.00383471,3.25583471 9.09090909,3.04563636 9.09090909,2.82644628 C9.09090909,2.6072562 9.00383471,2.39704132 8.84884297,2.24206612 C8.69386777,2.08707107 8.48365289,2 8.26446281,2 L1.30578512,2 C0.959469418,2 0.627337186,2.13757355 0.382456194,2.38246281 C0.137573384,2.62733884 0,2.95947107 0,3.30578512 Z" id="Shape"></path>
                <path d="M15.088567,5.72188463 C15.3302972,5.72188463 15.5621111,5.62558147 15.7330413,5.45416258 C15.9039714,5.28276198 16,5.050267 16,4.80784555 L16,0 L11.1876337,0 C10.9459034,0 10.7140713,0.0963002324 10.5431594,0.267716562 C10.3722292,0.439131794 10.2762007,0.67162129 10.2762007,0.914039078 C10.2762007,1.15645687 10.3722292,1.38894636 10.5431594,1.56036159 C10.7140713,1.73177866 10.9459034,1.82807816 11.1876337,1.82807816 L12.8828991,1.82807816 L10.2762007,4.44222992 C10.189013,4.52429235 10.1195253,4.62341075 10.0720214,4.73346105 C10.0245175,4.84349308 10,4.96213535 10,5.08205727 C10,5.2019792 10.0245175,5.32062147 10.0720214,5.4306535 C10.1195253,5.5407038 10.189013,5.6398222 10.2762007,5.72188463 C10.4444694,5.89410787 10.6738042,5.99265957 10.9142038,5.99609635 C11.0512468,6.00871009 11.1893836,5.99066696 11.3186248,5.94324661 C11.447866,5.89582627 11.5650034,5.82021695 11.6615788,5.72188463 L14.177134,3.12601365 L14.177134,4.80784555 C14.177134,5.050267 14.2731626,5.28276198 14.4440927,5.45416258 C14.6150046,5.62558147 14.8468367,5.72188463 15.088567,5.72188463 Z" id="Shape"></path>
            </g>
        </g>
    </g>
</svg>