<?xml version="1.0" encoding="UTF-8"?>
<svg width="34px" height="29px" viewBox="0 0 34 29" version="1.1" xmlns="http://www.w3.org/2000/svg" xmlns:xlink="http://www.w3.org/1999/xlink">
    <!-- Generator: Sketch 50.2 (55047) - http://www.bohemiancoding.com/sketch -->
    <title>noun_dashboard_1041545</title>
    <desc>Created with Sketch.</desc>
    <defs></defs>
    <g id="Symbols" stroke="none" stroke-width="1" fill="none" fill-rule="evenodd">
        <g id="Sidebar" transform="translate(-34.000000, -135.000000)" fill="#FFFFFF" fill-rule="nonzero">
            <g id="noun_dashboard_1041545" transform="translate(34.000000, 135.000000)">
                <g id="Group">
                    <path d="M23.072585,10.6052795 C21.8428918,11.2073287 15.6552309,14.2559315 14.6852495,15.1441516 C13.4181929,16.307261 13.3079345,18.3123369 14.4412889,19.6134552 C15.0259152,20.2858249 15.8643923,20.6708958 16.7424306,20.6708958 C17.5006865,20.6708958 18.2300041,20.385101 18.7955824,19.8661579 C19.7644649,18.9783139 23.4106865,13.0093399 24.1319454,11.8217875 C24.3264545,11.5013965 24.2916553,11.0877462 24.0465958,10.8060879 C23.80117,10.5251818 23.4055582,10.4432038 23.072585,10.6052795 Z M17.6929977,18.5988838 C17.4307218,18.839177 17.0933529,18.9715451 16.7420643,18.9715451 C16.3358296,18.9715451 15.9464451,18.7925473 15.6753778,18.4811814 C15.1508259,17.8783801 15.2017426,16.9499232 15.7878341,16.4118017 C16.2131167,16.0233465 18.7014414,14.6970332 21.1696192,13.4440488 C19.6794816,15.8210339 18.1164488,18.2104285 17.6929977,18.5988838 Z" id="Shape"></path>
                    <path d="M17.0783343,0.42872973 C8.0195577,0.42872973 0.649090909,7.99476999 0.649090909,17.2943811 C0.649090909,21.3150621 2.05314633,25.210896 4.60410954,28.2640113 C4.76601732,28.4580509 4.99788976,28.5607114 5.23305897,28.5607114 C5.37775031,28.5607114 5.52317426,28.5219787 5.65431223,28.441881 C8.5909969,26.6545356 12.7551769,25.6290588 17.077968,25.6290588 C21.3996601,25.6290588 25.5638401,26.6541595 28.50199,28.4415049 C28.847784,28.6513384 29.2910157,28.5768814 29.5521927,28.2636353 C32.1024233,25.2093918 33.5064788,21.31431 33.5064788,17.2947571 C33.5068451,7.99476999 26.1367446,0.42872973 17.0783343,0.42872973 Z M28.7243385,26.6191873 C25.5649391,24.8803518 21.4630312,23.9289561 17.0783343,23.9289561 C12.6925384,23.9289561 8.5906306,24.8807278 5.43233008,26.6195633 C3.41068075,23.9620481 2.30516568,20.6772886 2.30516568,17.2943811 C2.30516568,8.93187597 8.93202889,2.12845647 17.0783343,2.12845647 C25.2235408,2.12845647 31.8511366,8.93187597 31.8511366,17.2943811 C31.8511366,20.6765365 30.7448889,23.9609199 28.7243385,26.6191873 Z" id="Shape"></path>
                    <path d="M17.0783343,7.57359876 C17.5354857,7.57359876 17.9061885,7.19304047 17.9061885,6.72373539 L17.9061885,4.47987047 C17.9061885,4.01056539 17.5354857,3.63038315 17.0783343,3.63038315 C16.6208166,3.63038315 16.2504801,4.01094143 16.2504801,4.47987047 L16.2504801,6.72373539 C16.2504801,7.19304047 16.6208166,7.57359876 17.0783343,7.57359876 Z" id="Shape"></path>
                    <path d="M26.546276,17.2943811 C26.546276,17.7636862 26.9169789,18.1442445 27.3741302,18.1442445 L29.5598852,18.1442445 C30.0174029,18.1442445 30.3877394,17.7636862 30.3877394,17.2943811 C30.3877394,16.8247 30.0170365,16.4445177 29.5598852,16.4445177 L27.3741302,16.4445177 C26.9169789,16.4445177 26.546276,16.8247 26.546276,17.2943811 Z" id="Shape"></path>
                    <path d="M7.60856104,17.2943811 C7.60856104,16.8247 7.23785818,16.4445177 6.78034051,16.4445177 L4.59531817,16.4445177 C4.1378005,16.4445177 3.76746394,16.825076 3.76746394,17.2943811 C3.76746394,17.7636862 4.1378005,18.1442445 4.59531817,18.1442445 L6.78034051,18.1442445 C7.23785818,18.1442445 7.60856104,17.7636862 7.60856104,17.2943811 Z" id="Shape"></path>
                    <path d="M25.5821555,11.3178862 C25.1869101,11.5536669 25.0528416,12.0737381 25.2828825,12.4794915 C25.4363652,12.7509965 25.7140261,12.9021669 25.9993794,12.9021669 C26.1400413,12.9021669 26.2840001,12.8649383 26.4147717,12.7870969 L28.3041842,11.6593357 C28.6994296,11.4239311 28.833498,10.9034838 28.6038234,10.4977304 C28.3741488,10.0919771 27.8671797,9.95396828 27.4719342,10.190125 L25.5821555,11.3178862 Z" id="Shape"></path>
                    <path d="M7.77523081,21.9370418 L5.88655099,23.0636748 C5.49057292,23.2994555 5.3568708,23.8195267 5.5865454,24.2256561 C5.74002811,24.4967851 6.01768896,24.6483316 6.30304225,24.6483316 C6.44480313,24.6483316 6.58766293,24.6114791 6.71843459,24.5332616 L8.60711442,23.4066285 C9.00235987,23.1708478 9.13606199,22.6507766 8.90638739,22.2446472 C8.6774454,21.8388938 8.17010995,21.7012611 7.77523081,21.9370418 Z" id="Shape"></path>
                    <path d="M21.8330015,8.96797636 C21.9623079,9.0439376 22.1029699,9.08003799 22.2425329,9.08003799 C22.5300841,9.08003799 22.8095764,8.92585923 22.9623265,8.6509698 L24.0454969,6.70154869 C24.272241,6.29391511 24.1337769,5.77497199 23.7363336,5.54219968 C23.3396229,5.30980341 22.8337527,5.45119661 22.6073749,5.85958228 L21.5242045,7.80900339 C21.2974604,8.21626093 21.4359245,8.73558009 21.8330015,8.96797636 Z" id="Shape"></path>
                    <path d="M11.7478322,5.89117013 C11.5188902,5.48466468 11.0137526,5.34515171 10.6166756,5.58055635 C10.2214302,5.81520889 10.0858965,6.3349041 10.3144722,6.74140954 L11.4071665,8.68330973 C11.5602829,8.95594289 11.8390427,9.10824142 12.1247623,9.10824142 C12.2646916,9.10824142 12.4075514,9.07138893 12.5379568,8.99392351 C12.9339348,8.75927097 13.0694685,8.23957576 12.8405265,7.83344636 L11.7478322,5.89117013 Z" id="Shape"></path>
                    <path d="M8.80235615,11.3663961 L6.90708279,10.2495402 C6.51110473,10.0160158 6.0048682,10.1559048 5.77739145,10.5635384 C5.54991469,10.9704199 5.68618096,11.4897391 6.08289163,11.7232635 L7.9785313,12.8401193 C8.10857035,12.9168327 8.24996492,12.9533091 8.39026057,12.9533091 C8.67707909,12.9533091 8.95547255,12.8002585 9.10858895,12.5264972 C9.33606571,12.1196157 9.19906682,11.5999205 8.80235615,11.3663961 Z" id="Shape"></path>
                    <path d="M28.5598666,23.0012512 L26.6660585,21.8855235 C26.270813,21.6523752 25.7631112,21.7922642 25.5367334,22.1995217 C25.3088903,22.6067792 25.4458892,23.1260984 25.8418673,23.3596228 L27.7356754,24.4753505 C27.8657145,24.5516878 28.0074753,24.5877882 28.1474047,24.5877882 C28.4342232,24.5877882 28.7133493,24.4347376 28.8657331,24.1609763 C29.0935761,23.7540948 28.9565773,23.2343996 28.5598666,23.0012512 Z" id="Shape"></path>
                </g>
            </g>
        </g>
    </g>
</svg>