<?xml version="1.0" encoding="UTF-8"?>
<svg width="20px" height="20px" viewBox="0 0 20 20" version="1.1" xmlns="http://www.w3.org/2000/svg" xmlns:xlink="http://www.w3.org/1999/xlink">
    <!-- Generator: Sketch 50.2 (55047) - http://www.bohemiancoding.com/sketch -->
    <title>noun_Home_2540284</title>
    <desc>Created with Sketch.</desc>
    <defs></defs>
    <g id="Welcome" stroke="none" stroke-width="1" fill="none" fill-rule="evenodd">
        <g id="Household" transform="translate(-616.000000, -411.000000)" fill="#A4A4A4" fill-rule="nonzero">
            <g id="Group-3" transform="translate(616.000000, 411.000000)">
                <g id="noun_Home_2540284">
                    <path d="M7.31083637,18.7174778 L7.31083637,13.7797673 C7.31083637,13.3950106 7.62352982,13.1385062 7.93622326,13.1385062 L12.0637767,13.1385062 C12.3764702,13.1385062 12.6891636,13.3950106 12.6891636,13.7797673 L12.6891636,18.7174778 L16.9417945,18.7174778 L16.9417945,8.64967848 L10,1.53168024 L3.05820552,8.97030903 L3.05820552,18.7174778 L7.31083637,18.7174778 Z M11.4383898,18.7174778 L11.4383898,14.4210284 L8.56161015,14.4210284 L8.56161015,18.7174778 L11.4383898,18.7174778 Z M9.49969049,0.249158038 C9.74984524,-0.0714725129 10.1876161,-0.0714725129 10.4377708,0.185031928 C13.5647053,3.39133744 16.6916397,6.59764295 19.8185742,9.80394847 C20.3814224,10.3810835 19.5058807,11.278849 18.9430325,10.701714 L18.1925683,9.93220069 L18.1925683,19.3587389 C18.1925683,19.6793694 17.9424135,20 17.5671814,20 L2.43281863,20 C2.05758649,20 1.80743174,19.6793694 1.80743174,19.3587389 L1.80743174,10.3169574 L1.05696747,11.0864707 C0.494119267,11.7277318 -0.381422379,10.8299662 0.181425822,10.1887051 C3.24582158,6.91827351 6.37275604,3.58371577 9.49969049,0.249158038 Z" id="Shape"></path>
                </g>
            </g>
        </g>
    </g>
</svg>