<?xml version="1.0" encoding="UTF-8"?>
<svg width="32px" height="27px" viewBox="0 0 32 27" version="1.1" xmlns="http://www.w3.org/2000/svg" xmlns:xlink="http://www.w3.org/1999/xlink">
    <!-- Generator: Sketch 50.2 (55047) - http://www.bohemiancoding.com/sketch -->
    <title>noun_Map_883284</title>
    <desc>Created with Sketch.</desc>
    <defs></defs>
    <g id="Symbols" stroke="none" stroke-width="1" fill="none" fill-rule="evenodd" opacity="0.483314732">
        <g id="Sidebar" transform="translate(-32.000000, -233.000000)" fill="#FFFFFF" fill-rule="nonzero">
            <g id="noun_Map_883284" transform="translate(32.000000, 233.000000)">
                <path d="M19.84,6.57692308 C19.84,4.67307692 18.24,3.11538462 16.2488889,3.11538462 C14.2577778,3.11538462 12.6577778,4.67307692 12.6577778,6.57692308 C12.6577778,8.48076923 14.2577778,10.0384615 16.2488889,10.0384615 C18.24,10.0384615 19.84,8.48076923 19.84,6.57692308 Z M14.08,6.57692308 C14.08,5.43461538 15.04,4.5 16.2488889,4.5 C17.4577778,4.5 18.4177778,5.43461538 18.4177778,6.57692308 C18.4177778,7.71923077 17.4577778,8.65384615 16.2488889,8.65384615 C15.04,8.65384615 14.08,7.71923077 14.08,6.57692308 Z M16.0711111,18.6230769 L16.5688889,18.1384615 C22.4355556,12.4961538 22.8977778,8.37692308 22.8977778,7.26923077 L22.8977778,6.57692308 C22.8977778,2.94230769 19.84,0 16.0711111,0 C12.3022222,0 9.24444444,2.94230769 9.24444444,6.57692308 L9.24444444,7.26923077 C9.24444444,8.37692308 9.70666667,12.4961538 15.5733333,18.1384615 L16.0711111,18.6230769 Z M10.6666667,6.57692308 C10.6666667,3.70384615 13.0844444,1.38461538 16.0711111,1.38461538 C19.0577778,1.38461538 21.4755556,3.70384615 21.4755556,6.57692308 L21.4755556,7.26923077 C21.4755556,7.96153846 21.1911111,11.5269231 16.0711111,16.65 C10.9511111,11.5269231 10.6666667,7.92692308 10.6666667,7.26923077 L10.6666667,6.57692308 Z M32,22.3961538 L24.1422222,27 L16.1777778,24.4384615 C16.1066667,24.4038462 16.0355556,24.3692308 16,24.3346154 C15.9288889,24.3692308 15.8933333,24.4038462 15.8222222,24.4384615 L7.85777778,27 L0,22.3961538 L4.23111111,7.54615385 L8.60444444,10.1076923 C8.96,10.3153846 9.06666667,10.7307692 8.85333333,11.0423077 C8.64,11.3538462 8.21333333,11.4576923 7.85777778,11.2846154 L5.12,9.69230769 L1.67111111,21.7384615 L7.53777778,25.2 L8.88888889,13.7769231 C8.92444444,13.3961538 9.28,13.1192308 9.67111111,13.1538462 C10.0622222,13.1884615 10.3466667,13.5346154 10.3111111,13.9153846 L8.96,25.1653846 L15.36,23.1230769 C15.36,23.1230769 15.36,23.1230769 15.36,23.1230769 L15.36,20.7346154 C15.36,20.3538462 15.68,20.0423077 16.0711111,20.0423077 C16.4622222,20.0423077 16.7822222,20.3538462 16.7822222,20.7346154 L16.7822222,23.1576923 C16.7822222,23.1576923 16.7822222,23.1576923 16.7822222,23.1576923 L23.1822222,25.2346154 L21.8311111,13.9153846 C21.7955556,13.5346154 22.08,13.1884615 22.4711111,13.1538462 C22.8622222,13.1192308 23.2177778,13.3961538 23.2533333,13.7769231 L24.6044444,25.0961538 L30.3288889,21.7384615 L26.88,9.69230769 L24.1422222,11.2846154 C23.7866667,11.4923077 23.36,11.3884615 23.1466667,11.0423077 C22.9333333,10.7307692 23.04,10.2807692 23.3955556,10.1076923 L27.7688889,7.54615385 L32,22.3961538 Z" id="Shape"></path>
            </g>
        </g>
    </g>
</svg>