<?xml version="1.0" encoding="UTF-8"?>
<svg width="49px" height="53px" viewBox="0 0 49 53" version="1.1" xmlns="http://www.w3.org/2000/svg" xmlns:xlink="http://www.w3.org/1999/xlink">
    <!-- Generator: Sketch 50.2 (55047) - http://www.bohemiancoding.com/sketch -->
    <title>Group 2</title>
    <desc>Created with Sketch.</desc>
    <defs>
        <linearGradient x1="-2.22044605e-14%" y1="50%" x2="100%" y2="50%" id="linearGradient-1">
            <stop stop-color="#92FF9F" offset="0%"></stop>
            <stop stop-color="#5485F2" offset="100%"></stop>
        </linearGradient>
    </defs>
    <g id="Symbols" stroke="none" stroke-width="1" fill="none" fill-rule="evenodd">
        <g id="Pulse-Logo">
            <g id="Group-2">
                <g id="Group-3">
                    <path d="M24.5,53 C40.8333333,42.002885 49,32.1750567 49,23.516515 C49,10.5287024 38.0309764,0 24.5,0 C10.9690236,0 0,10.5287024 0,23.516515 C0,32.1750567 8.16666667,42.002885 24.5,53 Z" id="Oval-3" fill="url(#linearGradient-1)"></path>
                    <g id="noun_pulse_822064" transform="translate(0.000000, 11.000000)" fill="#FFFFFF" fill-rule="nonzero">
                        <g id="Group">
                            <path d="M21.6133744,0.00346709042 C21.1350413,0.0401829876 20.7422865,0.302683257 20.639573,0.654313645 L16.2052988,15.4285596 L13.1795588,12.0311198 C12.9759913,11.797854 12.6301281,11.6562 12.2579253,11.6536496 L1.12876657,11.6536496 C0.727409132,11.6494006 0.354086567,11.8072496 0.151751386,12.0667531 C-0.0505837953,12.3262566 -0.0505837953,12.6472097 0.151751386,12.9067132 C0.354086567,13.1662167 0.727409132,13.3240657 1.12876657,13.3198168 L11.6666888,13.3198168 L15.7879554,17.9538442 C16.0361028,18.2251567 16.4742074,18.3618467 16.9063152,18.3027759 C17.338423,18.2437051 17.6837056,17.999923 17.7877261,17.6804679 L21.5264279,5.21023953 L25.6303052,24.2930689 C25.7120547,24.6922843 26.1645312,24.9901207 26.7039184,24.9997597 C27.2433056,25.0093988 27.714253,24.7280643 27.8213583,24.3322238 L32.2208539,8.98525368 L35.2118153,12.9033583 C35.4079046,13.168456 35.7808095,13.3329581 36.1856167,13.3329378 L47.8712334,13.320025 C48.2725909,13.324274 48.6459134,13.166425 48.8482486,12.9069215 C49.0505838,12.647418 49.0505838,12.3264649 48.8482486,12.0669614 C48.6459134,11.8074579 48.2725909,11.6496089 47.8712334,11.6538579 L36.8464105,11.6667706 L32.7077546,6.25169815 C32.4840592,5.9435702 32.0265575,5.77328048 31.5633427,5.82572911 C31.1001279,5.87817775 30.7303741,6.14213553 30.6384266,6.48600291 L26.8823356,19.6200947 L22.8132369,0.693468574 C22.715648,0.264097558 22.1927359,-0.0365575719 21.6133744,0.00359205296 L21.6133744,0.00346709042 Z" id="Shape"></path>
                        </g>
                    </g>
                </g>
            </g>
        </g>
    </g>
</svg>