<?xml version="1.0" encoding="UTF-8"?>
<svg width="31px" height="31px" viewBox="0 0 31 31" version="1.1" xmlns="http://www.w3.org/2000/svg" xmlns:xlink="http://www.w3.org/1999/xlink">
    <!-- Generator: Sketch 50.2 (55047) - http://www.bohemiancoding.com/sketch -->
    <title>noun_Search_2528067</title>
    <desc>Created with Sketch.</desc>
    <defs></defs>
    <g id="Welcome" stroke="none" stroke-width="1" fill="none" fill-rule="evenodd">
        <g id="Overview-Copy-3" transform="translate(-162.000000, -35.000000)" fill="#B0B0B0" fill-rule="nonzero">
            <g id="noun_Search_2528067" transform="translate(162.000000, 35.000000)">
                <g id="Group">
                    <path d="M20.0260402,11.9738526 C20.0260402,12.4327971 19.9932585,12.8851853 19.9342513,13.3375735 C19.9604767,13.160552 19.9801458,12.9900869 20.0063712,12.8130654 C19.8818005,13.6916164 19.6457719,14.5439419 19.3048417,15.3634857 C19.3704052,15.2061333 19.4359687,15.0487809 19.5015322,14.8914285 C19.2523909,15.4749437 18.9507988,16.0387898 18.5901995,16.5632978 C18.5115233,16.6813121 18.4262907,16.7993264 18.3410582,16.9173407 C18.2492693,17.0419114 18.0263534,17.2713837 18.4394034,16.7927701 C18.393509,16.8452209 18.3476145,16.904228 18.3017201,16.9566788 C18.0984732,17.1992638 17.88867,17.4352924 17.6657541,17.6582083 C17.4559509,17.8680115 17.233035,18.0712584 17.0035627,18.2679489 C16.9838937,18.287618 16.8330976,18.4318577 16.8003158,18.4318577 C16.8330976,18.4318577 17.2395913,18.1040401 16.9576683,18.307287 C16.8330976,18.3990759 16.7019706,18.4908648 16.5708436,18.5826537 C16.0463356,18.9366966 15.4824894,19.2382887 14.8989743,19.4939864 C15.0563267,19.4284229 15.2136791,19.3628594 15.3710315,19.2972959 C14.5514877,19.6382261 13.6991621,19.8742547 12.8206112,19.9988254 C12.9976327,19.9726 13.1680978,19.9529309 13.3451192,19.9267055 C12.4337865,20.0447198 11.5224538,20.0447198 10.6111211,19.9267055 C10.7881426,19.9529309 10.9586077,19.9726 11.1356292,19.9988254 C10.2570782,19.8742547 9.40475269,19.6382261 8.5852089,19.2972959 C8.74256131,19.3628594 8.89991372,19.4284229 9.05726612,19.4939864 C8.47375095,19.2448451 7.90990482,18.943253 7.38539679,18.5826537 C7.26738249,18.5039775 7.14936818,18.418745 7.03135388,18.3335124 C6.90678322,18.2417235 6.67731096,18.0188076 7.15592453,18.4318577 C7.10347373,18.3859632 7.04446658,18.3400688 6.99201577,18.2941743 C6.74943081,18.0909274 6.5134022,17.8811242 6.29048629,17.6582083 C6.08068308,17.4484051 5.87743622,17.2254892 5.68074571,16.9960169 C5.66107666,16.9763479 5.51683695,16.8255518 5.51683695,16.7927701 C5.51683695,16.8255518 5.84465447,17.2320455 5.64140761,16.9501225 C5.5496187,16.8255518 5.4578298,16.6944248 5.3660409,16.5632978 C5.01199798,16.0387898 4.71040586,15.4749437 4.4547082,14.8914285 C4.5202717,15.0487809 4.58583521,15.2061333 4.65139871,15.3634857 C4.31046849,14.5439419 4.07443988,13.6916164 3.94986923,12.8130654 C3.97609463,12.9900869 3.99576368,13.160552 4.02198908,13.3375735 C3.90397477,12.4262408 3.90397477,11.5149081 4.02198908,10.6035754 C3.99576368,10.7805968 3.97609463,10.9510619 3.94986923,11.1280834 C4.07443988,10.2495325 4.31046849,9.39720692 4.65139871,8.57766313 C4.58583521,8.73501554 4.5202717,8.89236795 4.4547082,9.04972035 C4.70384951,8.46620517 5.00544163,7.90235905 5.3660409,7.37785102 C5.4447171,7.25983672 5.52994965,7.14182241 5.61518221,7.0238081 C5.70697111,6.89923745 5.92988702,6.66976519 5.51683695,7.14837876 C5.5627314,7.09592796 5.60862586,7.03692081 5.65452031,6.98447 C5.85776717,6.74188504 6.06757038,6.50585643 6.29048629,6.28294052 C6.5002895,6.07313731 6.72320541,5.86989045 6.95267767,5.67319994 C6.97234672,5.65353089 7.12314278,5.50929118 7.15592453,5.50929118 C7.12314278,5.50929118 6.71664906,5.8371087 6.99857212,5.63386184 C7.12314278,5.54207293 7.25426979,5.45028403 7.38539679,5.35849512 C7.90990482,5.00445221 8.47375095,4.70286009 9.05726612,4.44716243 C8.89991372,4.51272593 8.74256131,4.57828944 8.5852089,4.64385294 C9.40475269,4.30292272 10.2570782,4.06689411 11.1356292,3.94232346 C10.9586077,3.96854886 10.7881426,3.98821791 10.6111211,4.01444331 C11.5224538,3.896429 12.4337865,3.896429 13.3451192,4.01444331 C13.1680978,3.98821791 12.9976327,3.96854886 12.8206112,3.94232346 C13.6991621,4.06689411 14.5514877,4.30292272 15.3710315,4.64385294 C15.2136791,4.57828944 15.0563267,4.51272593 14.8989743,4.44716243 C15.4824894,4.69630374 16.0463356,4.99789586 16.5708436,5.35849512 C16.6888579,5.43717133 16.8068722,5.52240388 16.9248865,5.60763644 C17.0494572,5.69942534 17.2789294,5.92234125 16.8003158,5.50929118 C16.8527667,5.55518563 16.9117738,5.60108009 16.9642246,5.64697454 C17.2068096,5.8502214 17.4428382,6.06002461 17.6657541,6.28294052 C17.8755573,6.49274373 18.0788042,6.71565964 18.2754947,6.9451319 C18.2951637,6.96480095 18.4394034,7.11559701 18.4394034,7.14837876 C18.4394034,7.11559701 18.1115859,6.70910329 18.3148328,6.99102635 C18.4066217,7.11559701 18.4984106,7.24672402 18.5901995,7.37785102 C18.9442424,7.90235905 19.2458345,8.46620517 19.5015322,9.04972035 C19.4359687,8.89236795 19.3704052,8.73501554 19.3048417,8.57766313 C19.6457719,9.39720692 19.8818005,10.2495325 20.0063712,11.1280834 C19.9801458,10.9510619 19.9604767,10.7805968 19.9342513,10.6035754 C19.9932585,11.0625199 20.0194839,11.5214644 20.0260402,11.9738526 C20.0325966,13.0031996 20.9242602,13.9866521 21.9929453,13.9407577 C23.0550741,13.8948632 23.9664067,13.0753194 23.9598504,11.9738526 C23.9467377,9.56767203 23.2255392,7.10904066 21.8159238,5.14869191 C20.3341887,3.08999791 18.3607272,1.56892464 15.9742157,0.690373697 C11.4241086,-0.994608334 5.92988702,0.487126837 2.84840237,4.23735922 C1.20931479,6.23704607 0.245531297,8.57110678 0.0357280869,11.1543088 C-0.160962423,13.5670457 0.461890858,16.0912406 1.72071012,18.1630473 C2.92707858,20.1496214 4.74318762,21.8477162 6.87400147,22.8049433 C9.28673839,23.8932975 11.8896095,24.2145586 14.4924805,23.6900506 C19.1474893,22.7524925 23.0485177,18.7531188 23.7762726,14.0456593 C23.8811742,13.3572425 23.9598504,12.6753821 23.9664067,11.9804089 C23.9729631,10.9510619 23.0616304,9.9676094 21.9995017,10.0135038 C20.9242602,10.0593983 20.0325966,10.8723857 20.0260402,11.9738526 Z" id="Shape"></path>
                    <path d="M17.8655694,20.6478743 C18.9145855,21.6968903 19.9636015,22.7459064 21.0126176,23.7949224 C22.6910432,25.4733481 24.3760253,27.1583301 26.054451,28.8367558 C26.4412756,29.2235805 26.8215439,29.6038488 27.2083686,29.9906735 C27.9361235,30.7184284 29.273619,30.7708792 29.9882611,29.9906735 C30.7094597,29.2039114 30.7684668,27.9844303 29.9882611,27.2107809 C28.9392451,26.1617649 27.890229,25.1127488 26.841213,24.0637328 C25.1627873,22.3853071 23.4778053,20.7003251 21.7993796,19.0218994 C21.4125549,18.6350747 21.0322866,18.2548064 20.6454619,17.8679817 C19.9177071,17.1402268 18.5802116,17.087776 17.8655694,17.8679817 C17.1443709,18.6547438 17.0853637,19.8742249 17.8655694,20.6478743 Z" id="Shape"></path>
                </g>
            </g>
        </g>
    </g>
</svg>